<?xml version="1.0" encoding="UTF-8" standalone="no"?>
<!-- Created with Inkscape (http://www.inkscape.org/) -->

<svg
   xmlns:dc="http://purl.org/dc/elements/1.1/"
   xmlns:cc="http://creativecommons.org/ns#"
   xmlns:rdf="http://www.w3.org/1999/02/22-rdf-syntax-ns#"
   xmlns:svg="http://www.w3.org/2000/svg"
   xmlns="http://www.w3.org/2000/svg"
   xmlns:sodipodi="http://sodipodi.sourceforge.net/DTD/sodipodi-0.dtd"
   xmlns:inkscape="http://www.inkscape.org/namespaces/inkscape"
   width="48px"
   height="48px"
   id="svg2985"
   version="1.1"
   inkscape:version="0.48.4 r9939"
   sodipodi:docname="Zeichnung.svg">
  <defs
     id="defs2987" />
  <sodipodi:namedview
     id="base"
     pagecolor="#ffffff"
     bordercolor="#666666"
     borderopacity="1.0"
     inkscape:pageopacity="0.0"
     inkscape:pageshadow="2"
     inkscape:zoom="23.104167"
     inkscape:cx="24"
     inkscape:cy="16.571886"
     inkscape:current-layer="layer1"
     showgrid="true"
     inkscape:grid-bbox="true"
     inkscape:document-units="px"
     inkscape:window-width="1280"
     inkscape:window-height="675"
     inkscape:window-x="0"
     inkscape:window-y="0"
     inkscape:window-maximized="1" />
  <metadata
     id="metadata2990">
    <rdf:RDF>
      <cc:Work
         rdf:about="">
        <dc:format>image/svg+xml</dc:format>
        <dc:type
           rdf:resource="http://purl.org/dc/dcmitype/StillImage" />
        <dc:title></dc:title>
      </cc:Work>
    </rdf:RDF>
  </metadata>
  <g
     inkscape:groupmode="layer"
     id="layer2"
     inkscape:label="Hintergrund">
    <rect
       style="fill:#f2f2f2"
       id="rect3072"
       width="50"
       height="50"
       x="0"
       y="-2" />
  </g>
  <g
     id="layer1"
     inkscape:label="Layer 1"
     inkscape:groupmode="layer">
    <path
       d="m 38.671114,5.125 -21.71875,6 0,0.375 0,3.59375 0,17.71875 c -0.751325,-0.510198 -1.839366,-0.706558 -2.9375,-0.4375 -1.800833,0.44123 -2.972351,1.957323 -2.625,3.375 0.347351,1.417677 2.074167,2.22248 3.875,1.78125 1.642568,-0.402453 2.766096,-1.70074 2.6875,-3 l 0,-18.375 19.71875,-5.40625 0,16 c -0.752152,-0.520446 -1.829635,-0.708943 -2.9375,-0.4375 -1.800833,0.44123 -2.972351,1.957323 -2.625,3.375 0.347351,1.417677 2.074167,2.22248 3.875,1.78125 1.642568,-0.402453 2.734846,-1.70074 2.65625,-3 l 0.03125,0 0,-18 0,-5 0,-0.34375 z"
       id="path3001"
       inkscape:connector-curvature="0"
       style="fill:#cccccc" />
  </g>
</svg>
